PathFileType	4	(X/Y/Z)	C:\Users\WrightLab\Desktop\Jo\P1_boxCal33.trc
DataRate	CameraRate	NumFrames	NumMarkers	Units	OrigDataRate	OrigDataStartFrame	OrigNumFrames
100.00	100.00	       19	19	mm	100.00	79	       624
Frame#	Time	Headset_Front			Headset_Back			Headset_Left			Headset_Right			Left_Shoulder			Right_Shoulder			Sternum			C7			Left Elbow			Right Elbow			Left Wrist			Right Wrist			Left ASIS			Right ASIS			S2			Left Knee			Right Knee			Left Ankle			Right Ankle			
		X1	Y1	Z1	X2	Y2	Z2	X3	Y3	Z3	X4	Y4	Z4	X5	Y5	Z5	X6	Y6	Z6	X7	Y7	Z7	X8	Y8	Z8	X9	Y9	Z9	X10	Y10	Z10	X11	Y11	Z11	X12	Y12	Z12	X13	Y13	Z13	X14	Y14	Z14	X15	Y15	Z15	X16	Y16	Z16	X17	Y17	Z17	X18	Y18	Z18	X19	Y19	Z19	

79	0.780	-558.77777	1298.34448	-1038.28577				-413.96219	1380.94214	-1159.35913	-638.96796	1361.43152	-1149.71277	-315.28726	1221.23853	-1232.98267	-689.12006	1220.12378	-1315.75671							-237.07585	897.49066	-1248.48071				-238.21042	708.43872	-1140.77539	-819.45123	715.09369	-1360.91956	-452.97632	823.69916	-1151.81421	-644.92169	827.36060	-1208.90234	-705.64105	420.03983	-1286.41577	-261.01605	410.92572	-1290.63159	-449.68356	861.20734	-1477.31726	-175.86646	157.85692	-1526.93213				
80	0.790	-563.85559	1300.63159	-1032.34546				-419.46600	1382.72717	-1155.19470	-644.23389	1363.28992	-1143.56702	-321.28491	1222.28772	-1226.89136	-695.83899	1221.77576	-1308.92273							-243.21727	898.86835	-1245.41504				-242.49164	709.56042	-1136.02612	-827.93134	717.65942	-1350.86255	-458.96732	825.53497	-1142.60229	-651.22430	828.00830	-1208.78882	-708.71362	419.15955	-1284.21899	-268.35437	411.99832	-1274.05383	-455.39294	862.43127	-1470.99475	-184.11476	164.72980	-1515.05310				
81	0.800	-569.06720	1302.88745	-1026.27161				-424.83215	1383.43250	-1147.77917	-650.22339	1364.71143	-1137.09106	-326.85318	1224.05237	-1222.88159	-701.56763	1222.76685	-1300.81970							-249.74898	899.82428	-1240.77979				-244.51086	710.50519	-1134.49231	-836.08038	720.44415	-1341.75403	-466.22342	826.32904	-1136.62683	-659.08386	833.24292	-1192.54663	-712.28772	418.74634	-1280.01868	-274.26105	413.36392	-1259.77490	-460.94101	863.39020	-1464.65649	-193.87268	170.71739	-1501.12646				
82	0.810	-574.70148	1303.79370	-1019.35278				-430.28882	1384.66687	-1141.39087	-655.36102	1366.14929	-1130.42627	-331.98639	1223.40955	-1213.09009	-707.29718	1224.55286	-1295.86121							-255.31450	901.30505	-1237.23083				-248.59767	712.27753	-1132.47424	-844.46747	720.69025	-1328.08508	-472.63284	827.54419	-1129.06287	-665.61377	833.19678	-1191.45947	-716.20221	415.90924	-1285.80432	-282.41718	414.15204	-1242.81165	-466.14621	864.43512	-1458.22217	-201.87762	174.47765	-1488.52783				
83	0.820	-580.18781	1305.79700	-1012.92804				-435.48416	1386.43506	-1137.01721	-660.58325	1367.70093	-1124.33423	-337.40433	1225.11719	-1209.22754	-712.65845	1224.86450	-1286.79651							-260.41873	902.72675	-1233.28564				-252.95383	713.47058	-1128.99377	-852.32135	722.69989	-1317.77649	-478.11316	828.73932	-1123.07654	-672.39612	833.61627	-1186.14600	-717.46051	415.15814	-1286.73938	-289.08627	415.87326	-1227.82739	-471.14117	865.78436	-1452.49658	-211.87970	176.01297	-1474.36279				
84	0.830	-585.99988	1306.76282	-1006.65784				-440.61612	1388.18884	-1132.63855	-665.68982	1369.16101	-1118.11963	-342.71579	1226.84583	-1205.22070	-718.87872	1226.35278	-1280.75073							-265.38446	904.03931	-1228.69202	-796.42584	965.15027	-1369.04443	-255.50534	714.79401	-1125.29919	-860.19684	725.52936	-1308.75085	-483.99582	828.92358	-1120.08496	-677.00214	835.29364	-1176.22131	-719.42175	416.96899	-1277.62134	-297.30374	417.12772	-1213.79919	-475.63388	866.83795	-1445.57617	-219.05492	178.37476	-1462.46106				
85	0.840	-590.68530	1308.66406	-1000.39935				-445.62021	1389.10583	-1126.12939	-670.54803	1370.74670	-1111.22412	-347.89737	1227.78516	-1199.26294	-723.72797	1227.50745	-1273.82141							-269.73328	905.55707	-1225.44604				-259.21240	716.05164	-1122.09583	-867.92078	726.64758	-1296.68311	-489.49893	830.46460	-1112.01086	-682.48120	836.97241	-1171.10034	-720.83307	415.42004	-1278.13623	-305.34149	419.55875	-1198.03711	-480.00735	868.73071	-1440.09644	-228.16008	177.95908	-1448.08923				
86	0.850	-593.61627	1310.05518	-994.14124				-450.52774	1389.98523	-1119.67407	-675.49664	1372.20679	-1105.39026	-353.08148	1229.53577	-1195.09924	-729.78741	1228.40881	-1266.89197							-274.26620	907.43781	-1222.08142	-811.78638	967.88422	-1353.41748	-262.80878	718.33197	-1117.82251	-876.13245	727.57733	-1283.81750	-493.32175	831.54022	-1102.64929	-686.96259	835.87512	-1162.62622	-722.44385	412.70511	-1284.41040	-313.35364	420.74576	-1184.11890	-484.15421	869.89252	-1433.93408	-237.73615	180.44131	-1436.29407				
87	0.860	-599.10327	1310.76758	-987.46777				-455.66663	1391.02502	-1113.70325	-680.37775	1373.46631	-1098.64331	-358.11002	1230.48840	-1189.00488	-734.79944	1229.81165	-1260.59045							-278.69675	908.84009	-1218.09412	-818.51282	968.57788	-1343.96423	-266.69873	718.87054	-1114.22180	-883.80475	730.35309	-1274.07422	-497.04456	832.15448	-1097.56946	-692.87537	835.50470	-1164.00757	-724.38812	411.07730	-1285.00806	-322.18164	423.40634	-1168.59937	-488.07367	871.15076	-1427.31628	-247.64056	179.84071	-1420.91577				
88	0.870	-603.34070	1311.94946	-980.98517				-460.10211	1391.03748	-1105.77527	-684.64020	1373.47266	-1090.79858	-363.20935	1232.20313	-1184.91919	-740.01276	1231.02051	-1255.27710							-282.94614	909.93750	-1213.34729				-269.88950	719.90161	-1110.87549	-890.87512	731.91827	-1262.77515	-502.14447	833.03247	-1092.23572	-696.48883	837.20709	-1158.19446	-726.86578	411.29300	-1282.23694	-330.67148	423.49258	-1154.89539	-491.75876	872.80304	-1421.66626	-259.14706	178.90852	-1405.31091				
89	0.880	-608.12592	1312.60522	-974.80432				-464.88699	1392.56311	-1101.88391	-689.32349	1374.67810	-1084.15198	-368.18716	1233.91199	-1180.76416	-744.92853	1230.54529	-1246.58850							-287.58160	911.40521	-1209.48169	-832.51373	969.99182	-1325.76086	-274.31671	721.87781	-1105.68616	-898.82550	732.26672	-1249.85156	-504.71603	834.10681	-1085.44861	-699.71271	837.71521	-1152.48804	-728.51068	409.75436	-1279.24231	-338.38361	425.55447	-1141.49255	-495.32227	874.42523	-1415.73755	-270.91107	177.77811	-1387.75684				
90	0.890	-611.11646	1313.18237	-967.52710				-469.48471	1392.51758	-1093.50671	-693.87811	1375.91394	-1077.62317	-372.56210	1234.39514	-1173.88513	-750.05450	1230.80103	-1238.47485							-291.26953	913.62115	-1206.30469	-839.05859	969.51196	-1314.20508	-276.65833	723.75659	-1101.10400	-906.03790	733.31653	-1237.57434	-508.13721	835.54041	-1079.65466	-703.15826	836.57684	-1148.85095	-729.31500	410.62283	-1275.00537	-347.77893	427.58807	-1127.81323	-498.86420	875.76715	-1410.07422	-283.29001	175.16641	-1370.56750				
91	0.900	-616.05963	1314.17114	-961.78943				-473.78860	1393.49023	-1088.96472	-698.34729	1377.17456	-1071.10718	-377.41248	1236.06995	-1169.76819	-755.47937	1232.03101	-1233.33789							-297.39249	915.66803	-1200.74072	-845.15759	970.71228	-1306.16687	-280.83017	724.71027	-1096.30481	-912.28241	735.97998	-1229.69885	-512.04138	837.30042	-1072.29919	-705.95557	836.81610	-1145.12244	-731.15259	411.02692	-1271.70288	-355.57126	429.38803	-1113.85999	-502.07410	877.05835	-1403.89063	-297.17053	170.21132	-1351.49084				
92	0.910	-619.83020	1315.14502	-953.97467				-478.16190	1394.24243	-1084.01843	-702.59064	1376.38635	-1063.17957	-381.62662	1237.68384	-1165.91406	-759.86432	1231.32019	-1223.84131							-299.14752	916.49908	-1198.08643	-851.10663	970.78900	-1296.02515	-284.55655	726.38263	-1091.84509	-920.06744	735.42865	-1215.15308	-515.13770	836.49365	-1069.03186	-707.65021	836.92969	-1143.02307	-734.60516	410.92996	-1268.67419	-365.19794	433.79172	-1101.18152	-505.23373	878.42310	-1398.37390	-308.81366	165.58231	-1335.51794				
93	0.920	-622.97882	1314.98938	-947.99890				-482.43170	1394.85303	-1078.68286	-706.87604	1377.47070	-1056.21106	-386.48853	1237.77527	-1157.72949	-764.76801	1231.85754	-1218.10461							-303.31628	917.85107	-1193.37183	-856.79089	970.36658	-1285.20654	-288.81894	727.79669	-1087.10278	-926.23132	736.87085	-1205.44067	-518.38190	837.89038	-1062.04688	-710.67682	841.19598	-1125.24939	-737.54218	408.17752	-1267.66516	-374.47305	439.34363	-1088.02820	-508.29099	879.50494	-1392.41650	-323.00912	158.12677	-1313.62549				
94	0.930	-627.25085	1315.05042	-941.57874				-486.47076	1394.12598	-1072.92908	-711.16113	1378.40417	-1049.56104	-390.62250	1239.35815	-1153.90210	-769.46796	1231.13879	-1209.44055							-306.62997	920.29883	-1191.41394	-861.92633	971.15057	-1277.10535	-291.22485	728.93463	-1083.75830	-932.93390	736.11639	-1191.71082	-521.57074	838.28046	-1056.52087	-712.84290	838.15460	-1128.27063	-739.39935	406.31161	-1268.45496	-384.39572	441.35617	-1075.23096	-511.02338	880.31104	-1386.58044	-335.56775	154.01955	-1294.26868				
95	0.940	-630.40112	1315.11304	-934.83508				-490.53891	1395.04700	-1067.47095	-714.55511	1377.56421	-1042.09009	-394.95554	1240.56885	-1149.26404	-773.81122	1231.04309	-1201.70386							-310.04700	921.08496	-1186.59229	-867.66003	969.40662	-1264.08777	-294.28580	730.54858	-1077.95850	-938.85931	736.89429	-1181.41760	-523.20575	839.55139	-1051.05249	-715.69568	838.51147	-1120.78076	-740.89264	407.06653	-1263.83264	-393.49896	443.77771	-1066.32727	-513.55414	880.90448	-1380.71814	-348.13934	148.30948	-1273.65637				
96	0.950	-633.27271	1314.59460	-928.26141				-494.17642	1395.43738	-1063.99512	-718.52429	1377.68628	-1034.67627	-399.41190	1241.42395	-1143.60559	-778.43933	1230.50854	-1194.53760							-314.02759	922.45300	-1182.00818	-872.25250	969.69165	-1255.61841	-298.04099	731.84436	-1072.73669	-943.81110	738.12720	-1172.35571	-527.86798	839.41400	-1048.99878	-717.51404	838.12067	-1119.10242	-741.54517	408.22794	-1259.14099	-404.16037	446.25345	-1054.06152	-515.78888	881.37653	-1374.95374	-362.31326	141.76830	-1251.42676				
97	0.960	-636.92316	1314.64209	-920.53278	-583.22266	1482.71960	-1169.38696	-498.18030	1394.45032	-1053.89368	-722.21234	1377.59778	-1027.41260	-403.70352	1242.23132	-1138.13586	-783.02411	1229.60632	-1185.37854							-317.12805	923.08374	-1176.60840	-877.11804	968.46680	-1244.35046	-301.00613	732.62537	-1066.32471	-949.43274	737.03162	-1160.27014	-532.78418	839.80792	-1044.59619	-722.79797	834.80060	-1127.41406	-741.68256	408.94250	-1254.64893	-412.55676	449.37396	-1041.90771				-373.90546	134.92705	-1229.28162				
